# xmcd
#
# Track frame offsets:
#	150
#	10475
#	22377
#	34380
#	45160
#	55875
#	68770
#	80090
#	92042
#	103595
#	113047
#	124692
#	134505
#	143585
#	153082
#	163460
#	171420
#	180790
#	190140
#	199465
#	209107
#	220045
#	230390
#	240487
#	249400
#	259237
#	275947
#	286680
#
# Disc length: 3984 seconds
#
# Revision: 0
# Processed by: cddbd v1.4PL0 Copyright (c) Steve Scherf et al.
# Submitted via: EasyCDDAExtractor 4.6.0.1
#
DISCID=a00f8e1c
DTITLE=Piano Red - Dr. Feelgood - The Doctor's In - Disc 4
DYEAR=1900
DGENRE=Blues
TTITLE0=Doctor Feel-Good 1961
TTITLE1=Mister Moonlight 1961
TTITLE2=The Swabble 1962
TTITLE3=Right String But The Wrong Yo Yo 1962
TTITLE4=I'll Be Home One Day 1962
TTITLE5=Sea Breeze 1962
TTITLE6=I Ain't Gonna Be A Lowdown Dog No More 1962
TTITLE7=Don't Let Me Catch You Wrong 1962
TTITLE8=What's Up Doc 1962
TTITLE9=I'll Give Anything 1962
TTITLE10=Love Is Amazing 1962
TTITLE11=Bald-Headed Lena 1963
TTITLE12=I Feel Good 1993
TTITLE13=It's A Sin To Tell A Lie 1993
TTITLE14=The Same Old Things Keep Happening 1962
TTITLE15=Let's Have A Good Time Tonight 1962
TTITLE16=My Gal Jo 1963
TTITLE17=Blang Dong 1963
TTITLE18=I Don't Mind 1993
TTITLE19=I'm Gonna Rock Some More 1993
TTITLE20=The Doctor's Boogie 1963
TTITLE21=Let The House Rock On 1964
TTITLE22=Doctor Of Love 1964
TTITLE23=It's A Sin To Tell A Lie 1964
TTITLE24=Good Guys 1964
TTITLE25=Goodbye (I Can't Forget) 1993
TTITLE26=Don't Tell Me No Dirty 1966
TTITLE27=Where Did You Go 1966
EXTD=
EXTT0=
EXTT1=
EXTT2=
EXTT3=
EXTT4=
EXTT5=
EXTT6=
EXTT7=
EXTT8=
EXTT9=
EXTT10=
EXTT11=
EXTT12=
EXTT13=
EXTT14=
EXTT15=
EXTT16=
EXTT17=
EXTT18=
EXTT19=
EXTT20=
EXTT21=
EXTT22=
EXTT23=
EXTT24=
EXTT25=
EXTT26=
EXTT27=
PLAYORDER=
